<svg xmlns="http://www.w3.org/2000/svg" xmlns:xlink="http://www.w3.org/1999/xlink" width="500" zoomAndPan="magnify" viewBox="0 0 375 374.999991" height="500" preserveAspectRatio="xMidYMid meet" version="1.0"><defs><g/><clipPath id="29a5084bef"><path d="M 37.558594 208 L 151.5 208 L 151.5 264 L 37.558594 264 Z M 37.558594 208 " clip-rule="nonzero"/></clipPath></defs><g fill="#545454" fill-opacity="1"><g transform="translate(81.299465, 241.007327)"><g><path d="M 149.5625 -43.125 C 155.820312 -31.769531 162.546875 -19.890625 169.734375 -7.484375 C 176.921875 4.921875 185.148438 16.164062 194.421875 26.25 C 203.703125 36.34375 214.195312 44.691406 225.90625 51.296875 C 237.625 57.910156 250.898438 61.21875 265.734375 61.21875 L 265.734375 64.34375 C 249.503906 64.34375 234.835938 62.660156 221.734375 59.296875 C 208.640625 55.941406 196.757812 51.25 186.09375 45.21875 C 175.425781 39.1875 165.628906 31.9375 156.703125 23.46875 C 147.773438 15.007812 139.484375 5.625 131.828125 -4.6875 C 124.171875 -15.007812 116.804688 -26.023438 109.734375 -37.734375 C 102.660156 -49.441406 95.53125 -61.5625 88.34375 -74.09375 L 56.34375 -29.5625 C 54.488281 -27.007812 53.15625 -24.628906 52.34375 -22.421875 C 51.53125 -20.222656 51.125 -17.617188 51.125 -14.609375 C 51.125 -11.359375 51.9375 -8.398438 53.5625 -5.734375 C 55.1875 -3.066406 57.625 -1.15625 60.875 0 L 20.171875 0 C 24.804688 -1.625 29.5 -4.578125 34.25 -8.859375 C 39.007812 -13.148438 42.894531 -17.269531 45.90625 -21.21875 L 86.609375 -76.875 C 76.640625 -92.175781 66.4375 -108.460938 56 -125.734375 C 45.5625 -143.015625 33.90625 -158.957031 21.03125 -173.5625 C 8.164062 -188.175781 -6.378906 -200.289062 -22.609375 -209.90625 C -38.835938 -219.53125 -57.503906 -224.34375 -78.609375 -224.34375 L -78.609375 -227.828125 C -56.347656 -227.828125 -35.882812 -224.925781 -17.21875 -219.125 C 1.445312 -213.332031 18.664062 -205.101562 34.4375 -194.4375 C 50.207031 -183.769531 64.695312 -170.957031 77.90625 -156 C 91.125 -141.039062 103.300781 -124.519531 114.4375 -106.4375 C 116.289062 -108.988281 119.015625 -112.523438 122.609375 -117.046875 C 126.203125 -121.566406 129.796875 -126.316406 133.390625 -131.296875 C 136.984375 -136.285156 140.113281 -141.097656 142.78125 -145.734375 C 145.445312 -150.378906 146.78125 -154.09375 146.78125 -156.875 C 146.78125 -160.113281 145.675781 -162.894531 143.46875 -165.21875 C 141.269531 -167.539062 138.78125 -169.164062 136 -170.09375 L 170.4375 -170.09375 C 166.726562 -168.46875 162.320312 -164.8125 157.21875 -159.125 C 152.113281 -153.445312 147.007812 -147.070312 141.90625 -140 C 136.8125 -132.925781 131.941406 -125.96875 127.296875 -119.125 C 122.660156 -112.289062 119.066406 -107.019531 116.515625 -103.3125 C 122.316406 -93.332031 127.941406 -83.359375 133.390625 -73.390625 C 138.835938 -63.421875 144.226562 -53.332031 149.5625 -43.125 Z M 149.5625 -43.125 "/></g></g></g><g clip-path="url(#29a5084bef)"><path fill="#ffffff" d="M 150.394531 250.808594 C 150.902344 250.234375 151.171875 249.484375 151.144531 248.714844 C 151.0625 246.125 149.914062 243.921875 147.914062 242.515625 C 146.390625 241.445312 144.414062 240.859375 142.183594 240.816406 C 142.183594 240.816406 142.183594 240.8125 142.183594 240.8125 C 142.183594 240.8125 90.683594 240.8125 90.683594 240.8125 C 94.277344 237.390625 96.511719 232.566406 96.511719 227.214844 C 96.511719 216.847656 88.109375 208.441406 77.742188 208.441406 C 69.214844 208.441406 62.015625 214.125 59.726562 221.914062 C 59.375 221.765625 58.984375 221.683594 58.578125 221.683594 C 58.578125 221.683594 40.578125 221.683594 40.578125 221.683594 C 38.910156 221.683594 37.558594 223.035156 37.558594 224.703125 C 37.558594 224.703125 37.558594 241.039062 37.558594 241.039062 C 37.558594 241.039062 37.558594 260.039062 37.558594 260.039062 C 37.558594 261.707031 38.910156 263.058594 40.578125 263.058594 C 40.578125 263.058594 44.023438 263.058594 44.023438 263.058594 C 44.03125 263.058594 44.039062 263.058594 44.046875 263.058594 C 44.046875 263.058594 128.144531 263.058594 128.144531 263.058594 C 128.15625 263.058594 128.167969 263.058594 128.179688 263.058594 C 128.191406 263.058594 128.199219 263.058594 128.210938 263.058594 C 128.210938 263.058594 142.144531 263.058594 142.144531 263.058594 C 142.15625 263.058594 142.167969 263.058594 142.179688 263.058594 C 147.859375 263.058594 151.675781 259.824219 151.675781 255.011719 C 151.675781 253.398438 151.238281 251.980469 150.394531 250.808594 Z M 150.394531 250.808594 " fill-opacity="1" fill-rule="nonzero"/></g><path fill="#545454" d="M 44.023438 259.671875 C 44.023438 259.671875 40.578125 259.671875 40.578125 259.671875 C 40.578125 259.671875 40.578125 244.0625 40.578125 244.0625 C 40.578125 244.0625 43.171875 244.0625 43.171875 244.0625 C 43.171875 244.0625 44.023438 244.0625 44.023438 244.0625 C 44.023438 244.0625 46.433594 244.0625 46.433594 244.0625 C 48.957031 244.0625 51.207031 246.105469 51.207031 249.066406 C 51.207031 252.234375 48.957031 254.09375 46.433594 254.09375 C 46.433594 254.09375 44.023438 254.09375 44.023438 254.09375 C 44.023438 254.09375 44.023438 259.671875 44.023438 259.671875 Z M 44.023438 246.769531 C 44.023438 246.769531 44.023438 251.382812 44.023438 251.382812 C 44.023438 251.382812 45.859375 251.382812 45.859375 251.382812 C 46.871094 251.382812 47.925781 250.558594 47.925781 249.066406 C 47.925781 247.640625 46.871094 246.769531 45.859375 246.769531 C 45.859375 246.769531 44.023438 246.769531 44.023438 246.769531 Z M 44.023438 246.769531 " fill-opacity="1" fill-rule="nonzero"/><path fill="#545454" d="M 55.914062 259.671875 C 55.914062 259.671875 52.46875 259.671875 52.46875 259.671875 C 52.46875 259.671875 52.46875 244.0625 52.46875 244.0625 C 52.46875 244.0625 55.0625 244.0625 55.0625 244.0625 C 55.0625 244.0625 55.914062 244.0625 55.914062 244.0625 C 55.914062 244.0625 58.324219 244.0625 58.324219 244.0625 C 60.847656 244.0625 63.097656 246.105469 63.097656 249.066406 C 63.097656 251.707031 61.515625 253.449219 59.539062 253.933594 C 59.539062 253.933594 64.015625 259.671875 64.015625 259.671875 C 64.015625 259.671875 59.65625 259.671875 59.65625 259.671875 C 59.65625 259.671875 55.9375 254.09375 55.9375 254.09375 C 55.9375 254.09375 55.914062 254.09375 55.914062 254.09375 C 55.914062 254.09375 55.914062 259.671875 55.914062 259.671875 Z M 55.914062 246.769531 C 55.914062 246.769531 55.914062 251.382812 55.914062 251.382812 C 55.914062 251.382812 57.75 251.382812 57.75 251.382812 C 58.761719 251.382812 59.816406 250.558594 59.816406 249.066406 C 59.816406 247.640625 58.761719 246.769531 57.75 246.769531 C 57.75 246.769531 55.914062 246.769531 55.914062 246.769531 Z M 55.914062 246.769531 " fill-opacity="1" fill-rule="nonzero"/><path fill="#545454" d="M 72.121094 259.902344 C 67.804688 259.902344 64.085938 256.183594 64.085938 251.867188 C 64.085938 247.550781 67.804688 243.832031 72.121094 243.832031 C 76.4375 243.832031 80.15625 247.550781 80.15625 251.867188 C 80.15625 256.183594 76.4375 259.902344 72.121094 259.902344 Z M 72.121094 247.253906 C 69.710938 247.253906 67.527344 249.433594 67.527344 251.84375 C 67.527344 254.253906 69.710938 256.457031 72.121094 256.457031 C 74.53125 256.457031 76.710938 254.253906 76.710938 251.84375 C 76.710938 249.433594 74.53125 247.253906 72.121094 247.253906 Z M 72.121094 247.253906 " fill-opacity="1" fill-rule="nonzero"/><path fill="#545454" d="M 84.90625 251.914062 C 84.90625 254.550781 86.972656 256.777344 89.453125 256.777344 C 90.96875 256.777344 92.894531 256.296875 93.746094 253.933594 C 93.746094 253.933594 89.773438 253.933594 89.773438 253.933594 C 89.773438 253.933594 89.773438 251.339844 89.773438 251.339844 C 89.773438 251.339844 97.464844 251.339844 97.464844 251.339844 C 97.464844 251.339844 97.464844 251.867188 97.464844 251.867188 C 97.464844 256.296875 93.90625 259.902344 89.453125 259.902344 C 85.042969 259.902344 81.417969 256.273438 81.417969 251.867188 C 81.417969 247.460938 85.042969 243.832031 89.453125 243.832031 C 92.894531 243.832031 95.996094 246.082031 97.074219 249.320312 C 97.074219 249.320312 93.285156 249.320312 93.285156 249.320312 C 92.527344 247.664062 90.96875 247.046875 89.453125 247.046875 C 86.972656 247.046875 84.90625 249.273438 84.90625 251.914062 Z M 84.90625 251.914062 " fill-opacity="1" fill-rule="nonzero"/><path fill="#545454" d="M 102.398438 259.671875 C 102.398438 259.671875 98.957031 259.671875 98.957031 259.671875 C 98.957031 259.671875 98.957031 244.0625 98.957031 244.0625 C 98.957031 244.0625 101.550781 244.0625 101.550781 244.0625 C 101.550781 244.0625 102.398438 244.0625 102.398438 244.0625 C 102.398438 244.0625 104.808594 244.0625 104.808594 244.0625 C 107.335938 244.0625 109.585938 246.105469 109.585938 249.066406 C 109.585938 251.707031 108 253.449219 106.027344 253.933594 C 106.027344 253.933594 110.503906 259.671875 110.503906 259.671875 C 110.503906 259.671875 106.140625 259.671875 106.140625 259.671875 C 106.140625 259.671875 102.421875 254.09375 102.421875 254.09375 C 102.421875 254.09375 102.398438 254.09375 102.398438 254.09375 C 102.398438 254.09375 102.398438 259.671875 102.398438 259.671875 Z M 102.398438 246.769531 C 102.398438 246.769531 102.398438 251.382812 102.398438 251.382812 C 102.398438 251.382812 104.234375 251.382812 104.234375 251.382812 C 105.246094 251.382812 106.300781 250.558594 106.300781 249.066406 C 106.300781 247.640625 105.246094 246.769531 104.234375 246.769531 C 104.234375 246.769531 102.398438 246.769531 102.398438 246.769531 Z M 102.398438 246.769531 " fill-opacity="1" fill-rule="nonzero"/><path fill="#545454" d="M 120.417969 259.671875 C 120.417969 259.671875 111.375 259.671875 111.375 259.671875 C 111.375 259.671875 111.375 244.0625 111.375 244.0625 C 111.375 244.0625 120.417969 244.0625 120.417969 244.0625 C 120.417969 244.0625 120.417969 247.183594 120.417969 247.183594 C 120.417969 247.183594 114.816406 247.183594 114.816406 247.183594 C 114.816406 247.183594 114.816406 250.28125 114.816406 250.28125 C 114.816406 250.28125 120.191406 250.28125 120.191406 250.28125 C 120.191406 250.28125 120.191406 253.40625 120.191406 253.40625 C 120.191406 253.40625 114.816406 253.40625 114.816406 253.40625 C 114.816406 253.40625 114.816406 256.550781 114.816406 256.550781 C 114.816406 256.550781 120.417969 256.550781 120.417969 256.550781 C 120.417969 256.550781 120.417969 259.671875 120.417969 259.671875 Z M 120.417969 259.671875 " fill-opacity="1" fill-rule="nonzero"/><path fill="#545454" d="M 131.09375 255.402344 C 131.09375 252.371094 122.070312 254.324219 122.070312 248.5625 C 122.070312 245.347656 125.054688 243.832031 127.902344 243.832031 C 131.117188 243.832031 134.007812 245.253906 134.125 248.8125 C 134.125 248.8125 130.796875 248.8125 130.796875 248.8125 C 130.613281 247.183594 129.671875 246.65625 127.949219 246.65625 C 126.984375 246.65625 125.628906 247.113281 125.628906 248.285156 C 125.628906 251.0625 134.652344 249.066406 134.652344 255.011719 C 134.652344 258.683594 131.371094 260.039062 128.179688 260.039062 C 124.734375 260.039062 121.589844 258.339844 121.566406 254.53125 C 121.566406 254.53125 125.054688 254.53125 125.054688 254.53125 C 125.148438 256.390625 126.617188 257.238281 128.316406 257.238281 C 129.394531 257.238281 131.09375 256.800781 131.09375 255.402344 Z M 131.09375 255.402344 " fill-opacity="1" fill-rule="nonzero"/><path fill="#545454" d="M 145.097656 255.402344 C 145.097656 252.371094 136.074219 254.324219 136.074219 248.5625 C 136.074219 245.347656 139.058594 243.832031 141.90625 243.832031 C 145.121094 243.832031 148.011719 245.253906 148.128906 248.8125 C 148.128906 248.8125 144.796875 248.8125 144.796875 248.8125 C 144.613281 247.183594 143.671875 246.65625 141.953125 246.65625 C 140.988281 246.65625 139.632812 247.113281 139.632812 248.285156 C 139.632812 251.0625 148.65625 249.066406 148.65625 255.011719 C 148.65625 258.683594 145.371094 260.039062 142.179688 260.039062 C 138.738281 260.039062 135.59375 258.339844 135.570312 254.53125 C 135.570312 254.53125 139.058594 254.53125 139.058594 254.53125 C 139.152344 256.390625 140.621094 257.238281 142.320312 257.238281 C 143.398438 257.238281 145.097656 256.800781 145.097656 255.402344 Z M 145.097656 255.402344 " fill-opacity="1" fill-rule="nonzero"/><path fill="#545454" d="M 40.578125 240.316406 C 40.578125 240.316406 40.578125 224.703125 40.578125 224.703125 C 40.578125 224.703125 44.023438 224.703125 44.023438 224.703125 C 44.023438 224.703125 44.023438 240.316406 44.023438 240.316406 C 44.023438 240.316406 40.578125 240.316406 40.578125 240.316406 Z M 40.578125 240.316406 " fill-opacity="1" fill-rule="nonzero"/><path fill="#545454" d="M 55.132812 240.316406 C 55.132812 240.316406 49.761719 230.582031 49.761719 230.582031 C 49.761719 230.582031 49.761719 240.316406 49.761719 240.316406 C 49.761719 240.316406 46.316406 240.316406 46.316406 240.316406 C 46.316406 240.316406 46.316406 224.703125 46.316406 224.703125 C 46.316406 224.703125 49.761719 224.703125 49.761719 224.703125 C 49.761719 224.703125 55.132812 234.4375 55.132812 234.4375 C 55.132812 234.4375 55.132812 224.703125 55.132812 224.703125 C 55.132812 224.703125 58.578125 224.703125 58.578125 224.703125 C 58.578125 224.703125 58.578125 240.316406 58.578125 240.316406 C 58.578125 240.316406 55.132812 240.316406 55.132812 240.316406 Z M 55.132812 240.316406 " fill-opacity="1" fill-rule="nonzero"/><path stroke-linecap="round" transform="matrix(0.105664, 0, 0, 0.105664, 77.740312, 227.21518)" fill-opacity="1" fill="#ffffff" fill-rule="nonzero" stroke-linejoin="round" d="M 131.921643 27.353565 C 131.921643 27.353565 131.921643 -23.219454 131.921643 -23.219454 C 131.921643 -23.219454 100.49835 -23.219454 100.49835 -23.219454 C 98.243266 -33.090065 94.546408 -42.406147 89.666556 -50.982858 C 89.666556 -50.982858 112.624044 -73.940346 112.624044 -73.940346 C 112.624044 -73.940346 76.875427 -109.688963 76.875427 -109.688963 C 76.875427 -109.688963 54.620341 -87.470847 54.620341 -87.470847 C 46.265442 -92.720385 37.097234 -96.786929 27.337529 -99.448667 C 27.337529 -99.448667 27.337529 -131.944049 27.337529 -131.944049 C 27.337529 -131.944049 -23.198521 -131.944049 -23.198521 -131.944049 C -23.198521 -131.944049 -23.198521 -100.483787 -23.198521 -100.483787 C -33.069132 -98.228703 -42.422183 -94.531845 -50.998893 -89.651993 C -50.998893 -89.651993 -73.956382 -112.64645 -73.956382 -112.64645 C -73.956382 -112.64645 -109.704999 -76.897832 -109.704999 -76.897832 C -109.704999 -76.897832 -87.449914 -54.642747 -87.449914 -54.642747 C -92.699452 -46.287848 -96.765996 -37.082671 -99.464703 -27.359935 C -99.464703 -27.359935 -131.923116 -27.359935 -131.923116 -27.359935 C -131.923116 -27.359935 -131.923116 23.213084 -131.923116 23.213084 C -131.923116 23.213084 -100.499823 23.213084 -100.499823 23.213084 C -98.244739 33.083695 -94.547881 42.399777 -89.668029 50.976488 C -89.668029 50.976488 -112.625517 73.933976 -112.625517 73.933976 C -112.625517 73.933976 -76.8769 109.682594 -76.8769 109.682594 C -76.8769 109.682594 -54.658783 87.464477 -54.658783 87.464477 C -46.266915 92.677047 -37.098707 96.780559 -27.339002 99.442297 C -27.339002 99.442297 -27.339002 131.937679 -27.339002 131.937679 C -27.339002 131.937679 23.197048 131.937679 23.197048 131.937679 C 23.197048 131.937679 23.197048 100.514386 23.197048 100.514386 C 33.067659 98.222334 42.42071 94.525476 50.99742 89.645623 C 50.99742 89.645623 73.954909 112.64008 73.954909 112.64008 C 73.954909 112.64008 109.703526 76.891463 109.703526 76.891463 C 109.703526 76.891463 87.448441 54.636377 87.448441 54.636377 C 92.697979 46.281478 96.764523 37.11327 99.46323 27.353565 C 99.46323 27.353565 131.921643 27.353565 131.921643 27.353565 Z M -0.0192208 50.089242 C -27.671719 50.089242 -50.074679 27.686282 -50.074679 -0.0031849 C -50.074679 -27.655683 -27.671719 -50.095612 -0.0192208 -50.095612 C 27.670246 -50.095612 50.073206 -27.655683 50.073206 -0.0031849 C 50.073206 27.686282 27.670246 50.089242 -0.0192208 50.089242 Z M -0.0192208 50.089242 " stroke="#545454" stroke-width="15" stroke-opacity="1" stroke-miterlimit="4"/><g fill="#545454" fill-opacity="1"><g transform="translate(227.138525, 166.724899)"><g><path d="M 88.375 -6.40625 C 88.375 -0.125 87.367188 5.585938 85.359375 10.734375 C 83.347656 15.890625 80.488281 20.285156 76.78125 23.921875 C 73.070312 27.566406 68.640625 30.394531 63.484375 32.40625 C 58.335938 34.414062 52.628906 35.421875 46.359375 35.421875 C 40.703125 35.421875 35.296875 34.539062 30.140625 32.78125 C 24.992188 31.019531 20.472656 28.472656 16.578125 25.140625 C 12.679688 21.816406 9.570312 17.769531 7.25 13 C 4.925781 8.226562 3.765625 2.828125 3.765625 -3.203125 C 3.765625 -8.984375 4.769531 -13.945312 6.78125 -18.09375 C 8.789062 -22.238281 11.519531 -25.660156 14.96875 -28.359375 C 18.425781 -31.054688 22.476562 -33.0625 27.125 -34.375 C 31.78125 -35.695312 36.742188 -36.359375 42.015625 -36.359375 L 42.015625 -35.609375 C 37.492188 -35.359375 33.316406 -34.257812 29.484375 -32.3125 C 25.648438 -30.363281 22.382812 -27.816406 19.6875 -24.671875 C 16.988281 -21.535156 14.882812 -17.957031 13.375 -13.9375 C 11.863281 -9.914062 11.109375 -5.644531 11.109375 -1.125 C 11.109375 4.019531 11.957031 8.695312 13.65625 12.90625 C 15.351562 17.113281 17.707031 20.722656 20.71875 23.734375 C 23.738281 26.753906 27.382812 29.078125 31.65625 30.703125 C 35.925781 32.335938 40.632812 33.15625 45.78125 33.15625 C 55.957031 33.15625 63.898438 30.171875 69.609375 24.203125 C 75.328125 18.242188 78.1875 10.175781 78.1875 0 C 78.1875 -5.40625 76.960938 -10.335938 74.515625 -14.796875 C 72.066406 -19.253906 68.988281 -23.457031 65.28125 -27.40625 C 61.582031 -31.363281 57.566406 -35.164062 53.234375 -38.8125 C 48.898438 -42.457031 44.878906 -46.097656 41.171875 -49.734375 C 37.460938 -53.378906 34.382812 -57.148438 31.9375 -61.046875 C 29.488281 -64.941406 28.265625 -69.148438 28.265625 -73.671875 C 28.265625 -76.941406 28.859375 -79.894531 30.046875 -82.53125 C 31.242188 -85.164062 32.878906 -87.363281 34.953125 -89.125 C 37.023438 -90.882812 39.441406 -92.234375 42.203125 -93.171875 C 44.972656 -94.117188 47.925781 -94.59375 51.0625 -94.59375 C 52.320312 -94.59375 53.546875 -94.460938 54.734375 -94.203125 C 55.929688 -93.953125 57.09375 -93.703125 58.21875 -93.453125 L 62.9375 -91.953125 C 65.445312 -91.191406 67.832031 -90.8125 70.09375 -90.8125 C 71.851562 -90.8125 73.234375 -91.503906 74.234375 -92.890625 L 72.921875 -71.03125 C 72.421875 -73.539062 71.539062 -76.113281 70.28125 -78.75 C 69.019531 -81.394531 67.414062 -83.785156 65.46875 -85.921875 C 63.53125 -88.054688 61.332031 -89.84375 58.875 -91.28125 C 56.425781 -92.726562 53.757812 -93.453125 50.875 -93.453125 C 46.226562 -93.453125 42.238281 -92.195312 38.90625 -89.6875 C 35.582031 -87.175781 33.921875 -83.410156 33.921875 -78.390625 C 33.921875 -74.492188 35.269531 -70.753906 37.96875 -67.171875 C 40.664062 -63.585938 44.023438 -60.066406 48.046875 -56.609375 C 52.066406 -53.160156 56.429688 -49.644531 61.140625 -46.0625 C 65.847656 -42.488281 70.210938 -38.691406 74.234375 -34.671875 C 78.253906 -30.648438 81.613281 -26.316406 84.3125 -21.671875 C 87.019531 -17.023438 88.375 -11.9375 88.375 -6.40625 Z M 88.375 -6.40625 "/></g></g></g><g fill="#545454" fill-opacity="1"><g transform="translate(13.188766, 335.948006)"><g><path d="M 14.765625 0 L 10.234375 0 L 10.234375 -28.671875 C 9.171875 -28.921875 8.109375 -29.046875 7.046875 -29.046875 L 0.75 -27.59375 L 0.46875 -30.921875 L 24.515625 -30.921875 L 24.28125 -27.59375 L 17.9375 -29.046875 C 16.875 -29.046875 15.816406 -28.921875 14.765625 -28.671875 Z M 14.765625 0 "/></g></g></g><g fill="#545454" fill-opacity="1"><g transform="translate(38.172853, 335.948006)"><g><path d="M 13.3125 -4.953125 L 13.3125 -9.765625 C 11.070312 -9.609375 9.234375 -9.109375 7.796875 -8.265625 C 6.367188 -7.421875 5.65625 -6.515625 5.65625 -5.546875 C 5.65625 -4.585938 5.898438 -3.757812 6.390625 -3.0625 C 6.890625 -2.363281 7.53125 -1.875 8.3125 -1.59375 C 9.34375 -1.78125 10.429688 -2.289062 11.578125 -3.125 C 12.734375 -3.96875 13.3125 -4.578125 13.3125 -4.953125 Z M 17.140625 -6.21875 C 17.140625 -4 17.945312 -2.316406 19.5625 -1.171875 L 17.140625 0.609375 L 13.359375 -2.796875 C 10.898438 -0.554688 8.625 0.5625 6.53125 0.5625 C 5.164062 0.5625 3.992188 0.125 3.015625 -0.75 C 2.035156 -1.625 1.546875 -2.722656 1.546875 -4.046875 C 1.546875 -5.367188 1.941406 -6.460938 2.734375 -7.328125 C 3.523438 -8.203125 4.578125 -8.875 5.890625 -9.34375 C 8.128906 -10.1875 10.601562 -10.710938 13.3125 -10.921875 L 13.3125 -15.3125 C 13.3125 -17.894531 11.816406 -19.1875 8.828125 -19.1875 C 7.117188 -19.1875 5.09375 -18.816406 2.75 -18.078125 L 2.328125 -19.234375 C 2.953125 -19.734375 4.035156 -20.265625 5.578125 -20.828125 C 7.117188 -21.390625 8.585938 -21.671875 9.984375 -21.671875 C 11.390625 -21.671875 12.566406 -21.484375 13.515625 -21.109375 C 14.460938 -20.734375 15.160156 -20.3125 15.609375 -19.84375 C 16.066406 -19.375 16.421875 -18.734375 16.671875 -17.921875 C 16.921875 -17.117188 17.0625 -16.484375 17.09375 -16.015625 C 17.125 -15.546875 17.140625 -14.925781 17.140625 -14.15625 Z M 17.140625 -6.21875 "/></g></g></g><g fill="#545454" fill-opacity="1"><g transform="translate(58.907303, 335.948006)"><g><path d="M 7.890625 -19.703125 C 7.078125 -19.703125 6.414062 -19.398438 5.90625 -18.796875 C 5.394531 -18.191406 5.140625 -17.503906 5.140625 -16.734375 C 5.140625 -15.972656 5.503906 -15.242188 6.234375 -14.546875 C 6.960938 -13.847656 7.847656 -13.222656 8.890625 -12.671875 C 9.941406 -12.128906 10.976562 -11.5625 12 -10.96875 C 13.03125 -10.382812 13.910156 -9.625 14.640625 -8.6875 C 15.367188 -7.75 15.734375 -6.707031 15.734375 -5.5625 C 15.734375 -3.8125 15.03125 -2.351562 13.625 -1.1875 C 12.226562 -0.0195312 10.320312 0.5625 7.90625 0.5625 C 5.5 0.5625 3.300781 0 1.3125 -1.125 L 1.3125 -2.890625 C 3.425781 -1.835938 5.335938 -1.3125 7.046875 -1.3125 C 8.765625 -1.3125 10.007812 -1.648438 10.78125 -2.328125 C 11.5625 -3.015625 11.953125 -3.800781 11.953125 -4.6875 C 11.953125 -5.582031 11.601562 -6.378906 10.90625 -7.078125 C 10.207031 -7.773438 9.347656 -8.390625 8.328125 -8.921875 C 7.316406 -9.453125 6.3125 -10.007812 5.3125 -10.59375 C 4.320312 -11.1875 3.476562 -11.953125 2.78125 -12.890625 C 2.082031 -13.828125 1.734375 -14.957031 1.734375 -16.28125 C 1.734375 -17.601562 2.269531 -18.832031 3.34375 -19.96875 C 4.414062 -21.101562 6.070312 -21.671875 8.3125 -21.671875 C 10.550781 -21.671875 12.703125 -21.265625 14.765625 -20.453125 L 14.296875 -17.375 C 11.984375 -18.613281 9.847656 -19.390625 7.890625 -19.703125 Z M 7.890625 -19.703125 "/></g></g></g><g fill="#545454" fill-opacity="1"><g transform="translate(76.27941, 335.948006)"><g><path d="M 7.421875 0 L 3.5 0 L 3.5 -31.890625 L 7.421875 -31.890625 L 7.421875 -12.140625 L 18.21875 -21.109375 L 21.296875 -21.109375 L 10.328125 -12.796875 L 22 0 L 17.328125 0.609375 L 7.421875 -11.71875 Z M 7.421875 0 "/></g></g></g><g fill="#545454" fill-opacity="1"><g transform="translate(99.302129, 335.948006)"><g/></g></g><g fill="#545454" fill-opacity="1"><g transform="translate(110.976933, 335.948006)"><g><path d="M 20.6875 -7.328125 L 31.015625 -30.921875 L 35.78125 -30.921875 L 37.5 0 L 32.734375 0 L 31.484375 -26.578125 L 31.296875 -26.578125 L 19.515625 0 L 18.875 0 L 7.328125 -25.5 L 7.140625 -25.5 L 5.890625 0 L 3.828125 0 L 5.5625 -30.921875 L 9.90625 -30.921875 Z M 20.6875 -7.328125 "/></g></g></g><g fill="#545454" fill-opacity="1"><g transform="translate(152.492547, 335.948006)"><g><path d="M 13.3125 -4.953125 L 13.3125 -9.765625 C 11.070312 -9.609375 9.234375 -9.109375 7.796875 -8.265625 C 6.367188 -7.421875 5.65625 -6.515625 5.65625 -5.546875 C 5.65625 -4.585938 5.898438 -3.757812 6.390625 -3.0625 C 6.890625 -2.363281 7.53125 -1.875 8.3125 -1.59375 C 9.34375 -1.78125 10.429688 -2.289062 11.578125 -3.125 C 12.734375 -3.96875 13.3125 -4.578125 13.3125 -4.953125 Z M 17.140625 -6.21875 C 17.140625 -4 17.945312 -2.316406 19.5625 -1.171875 L 17.140625 0.609375 L 13.359375 -2.796875 C 10.898438 -0.554688 8.625 0.5625 6.53125 0.5625 C 5.164062 0.5625 3.992188 0.125 3.015625 -0.75 C 2.035156 -1.625 1.546875 -2.722656 1.546875 -4.046875 C 1.546875 -5.367188 1.941406 -6.460938 2.734375 -7.328125 C 3.523438 -8.203125 4.578125 -8.875 5.890625 -9.34375 C 8.128906 -10.1875 10.601562 -10.710938 13.3125 -10.921875 L 13.3125 -15.3125 C 13.3125 -17.894531 11.816406 -19.1875 8.828125 -19.1875 C 7.117188 -19.1875 5.09375 -18.816406 2.75 -18.078125 L 2.328125 -19.234375 C 2.953125 -19.734375 4.035156 -20.265625 5.578125 -20.828125 C 7.117188 -21.390625 8.585938 -21.671875 9.984375 -21.671875 C 11.390625 -21.671875 12.566406 -21.484375 13.515625 -21.109375 C 14.460938 -20.734375 15.160156 -20.3125 15.609375 -19.84375 C 16.066406 -19.375 16.421875 -18.734375 16.671875 -17.921875 C 16.921875 -17.117188 17.0625 -16.484375 17.09375 -16.015625 C 17.125 -15.546875 17.140625 -14.925781 17.140625 -14.15625 Z M 17.140625 -6.21875 "/></g></g></g><g fill="#545454" fill-opacity="1"><g transform="translate(173.226997, 335.948006)"><g><path d="M 7.5625 -18.125 C 8.875 -19.363281 10.019531 -20.265625 11 -20.828125 C 11.976562 -21.390625 13.132812 -21.671875 14.46875 -21.671875 C 15.8125 -21.671875 17.050781 -21.140625 18.1875 -20.078125 C 19.320312 -19.023438 19.890625 -17.207031 19.890625 -14.625 L 19.890625 0 L 15.921875 0 L 15.921875 -14.15625 C 15.921875 -15.675781 15.648438 -16.816406 15.109375 -17.578125 C 14.566406 -18.347656 13.632812 -18.734375 12.3125 -18.734375 C 10.988281 -18.734375 9.453125 -17.859375 7.703125 -16.109375 L 7.703125 0 L 3.734375 0 L 3.734375 -14.671875 C 3.734375 -16.785156 2.941406 -18.476562 1.359375 -19.75 L 3.734375 -21.53125 Z M 7.5625 -18.125 "/></g></g></g><g fill="#545454" fill-opacity="1"><g transform="translate(196.576605, 335.948006)"><g><path d="M 13.3125 -4.953125 L 13.3125 -9.765625 C 11.070312 -9.609375 9.234375 -9.109375 7.796875 -8.265625 C 6.367188 -7.421875 5.65625 -6.515625 5.65625 -5.546875 C 5.65625 -4.585938 5.898438 -3.757812 6.390625 -3.0625 C 6.890625 -2.363281 7.53125 -1.875 8.3125 -1.59375 C 9.34375 -1.78125 10.429688 -2.289062 11.578125 -3.125 C 12.734375 -3.96875 13.3125 -4.578125 13.3125 -4.953125 Z M 17.140625 -6.21875 C 17.140625 -4 17.945312 -2.316406 19.5625 -1.171875 L 17.140625 0.609375 L 13.359375 -2.796875 C 10.898438 -0.554688 8.625 0.5625 6.53125 0.5625 C 5.164062 0.5625 3.992188 0.125 3.015625 -0.75 C 2.035156 -1.625 1.546875 -2.722656 1.546875 -4.046875 C 1.546875 -5.367188 1.941406 -6.460938 2.734375 -7.328125 C 3.523438 -8.203125 4.578125 -8.875 5.890625 -9.34375 C 8.128906 -10.1875 10.601562 -10.710938 13.3125 -10.921875 L 13.3125 -15.3125 C 13.3125 -17.894531 11.816406 -19.1875 8.828125 -19.1875 C 7.117188 -19.1875 5.09375 -18.816406 2.75 -18.078125 L 2.328125 -19.234375 C 2.953125 -19.734375 4.035156 -20.265625 5.578125 -20.828125 C 7.117188 -21.390625 8.585938 -21.671875 9.984375 -21.671875 C 11.390625 -21.671875 12.566406 -21.484375 13.515625 -21.109375 C 14.460938 -20.734375 15.160156 -20.3125 15.609375 -19.84375 C 16.066406 -19.375 16.421875 -18.734375 16.671875 -17.921875 C 16.921875 -17.117188 17.0625 -16.484375 17.09375 -16.015625 C 17.125 -15.546875 17.140625 -14.925781 17.140625 -14.15625 Z M 17.140625 -6.21875 "/></g></g></g><g fill="#545454" fill-opacity="1"><g transform="translate(217.311066, 335.948006)"><g><path d="M 6.171875 -4.203125 C 6.171875 -3.609375 6.613281 -3.203125 7.5 -2.984375 C 8.382812 -2.765625 10.085938 -2.65625 12.609375 -2.65625 C 15.128906 -2.65625 17.148438 -2.375 18.671875 -1.8125 C 20.203125 -1.257812 20.96875 -0.203125 20.96875 1.359375 C 20.96875 3.660156 19.835938 5.738281 17.578125 7.59375 C 15.328125 9.445312 12.566406 10.375 9.296875 10.375 C 6.929688 10.375 4.992188 9.925781 3.484375 9.03125 C 1.972656 8.144531 1.21875 6.878906 1.21875 5.234375 C 1.21875 2.898438 2.492188 1.171875 5.046875 0.046875 C 3.609375 -0.484375 2.890625 -1.472656 2.890625 -2.921875 C 2.890625 -4.367188 4.015625 -5.945312 6.265625 -7.65625 C 3.921875 -8.875 2.75 -10.859375 2.75 -13.609375 C 2.75 -16.367188 3.613281 -18.398438 5.34375 -19.703125 C 7.070312 -21.015625 9.007812 -21.671875 11.15625 -21.671875 C 12.6875 -21.671875 14.148438 -21.25 15.546875 -20.40625 L 19.65625 -21.578125 L 20.59375 -19.5625 L 17.703125 -18.125 C 18.296875 -17.09375 18.59375 -15.890625 18.59375 -14.515625 C 18.59375 -13.148438 18.316406 -11.945312 17.765625 -10.90625 C 17.222656 -9.863281 16.515625 -9.0625 15.640625 -8.5 C 13.898438 -7.375 12.019531 -6.8125 10 -6.8125 C 9.6875 -6.8125 9.25 -6.84375 8.6875 -6.90625 C 8.15625 -6.75 7.601562 -6.40625 7.03125 -5.875 C 6.457031 -5.351562 6.171875 -4.796875 6.171875 -4.203125 Z M 14.890625 -14.109375 C 14.890625 -15.722656 14.460938 -17.128906 13.609375 -18.328125 C 12.753906 -19.523438 11.695312 -20.125 10.4375 -20.125 C 9.175781 -20.125 8.171875 -19.578125 7.421875 -18.484375 C 6.679688 -17.398438 6.3125 -15.992188 6.3125 -14.265625 C 6.3125 -12.535156 6.726562 -11.101562 7.5625 -9.96875 C 8.40625 -8.832031 9.421875 -8.265625 10.609375 -8.265625 C 13.460938 -8.265625 14.890625 -10.210938 14.890625 -14.109375 Z M 10.046875 8.21875 C 12.628906 8.21875 14.820312 7.5 16.625 6.0625 C 18.425781 4.632812 19.328125 3.207031 19.328125 1.78125 C 17.742188 1.125 15.523438 0.796875 12.671875 0.796875 C 9.828125 0.796875 7.859375 0.703125 6.765625 0.515625 C 5.398438 1.660156 4.71875 2.890625 4.71875 4.203125 C 4.71875 6.878906 6.492188 8.21875 10.046875 8.21875 Z M 10.046875 8.21875 "/></g></g></g><g fill="#545454" fill-opacity="1"><g transform="translate(240.193686, 335.948006)"><g><path d="M 4.90625 -11.484375 C 4.90625 -8.117188 5.660156 -5.695312 7.171875 -4.21875 C 8.679688 -2.75 10.515625 -2.015625 12.671875 -2.015625 C 14.835938 -2.015625 16.84375 -2.429688 18.6875 -3.265625 L 18.6875 -1.640625 C 16.132812 -0.171875 13.6875 0.5625 11.34375 0.5625 C 8.320312 0.5625 5.878906 -0.351562 4.015625 -2.1875 C 2.148438 -4.03125 1.21875 -6.691406 1.21875 -10.171875 C 1.21875 -13.660156 2.25 -16.445312 4.3125 -18.53125 C 6.382812 -20.625 8.882812 -21.671875 11.8125 -21.671875 C 14.082031 -21.671875 15.976562 -20.773438 17.5 -18.984375 C 19.03125 -17.191406 19.796875 -14.691406 19.796875 -11.484375 Z M 9.4375 -19.46875 C 8.34375 -18.945312 7.40625 -18.097656 6.625 -16.921875 C 5.851562 -15.753906 5.34375 -14.410156 5.09375 -12.890625 L 16.015625 -12.890625 C 15.921875 -14.203125 15.617188 -15.320312 15.109375 -16.25 C 14.597656 -17.1875 13.984375 -17.875 13.265625 -18.3125 C 11.984375 -19.082031 10.707031 -19.46875 9.4375 -19.46875 Z M 9.4375 -19.46875 "/></g></g></g><g fill="#545454" fill-opacity="1"><g transform="translate(262.095617, 335.948006)"><g><path d="M 27.46875 -21.671875 C 31.132812 -21.671875 32.96875 -18.882812 32.96875 -13.3125 L 32.96875 0 L 29.046875 0 L 29.046875 -13.6875 C 29.046875 -16.300781 28.550781 -17.890625 27.5625 -18.453125 C 27.0625 -18.734375 26.363281 -18.875 25.46875 -18.875 C 24.582031 -18.875 23.632812 -18.597656 22.625 -18.046875 C 21.613281 -17.503906 20.875 -16.890625 20.40625 -16.203125 L 20.40625 0 L 16.4375 0 L 16.4375 -13.921875 C 16.4375 -15.566406 16.1875 -16.800781 15.6875 -17.625 C 15.1875 -18.457031 14.453125 -18.875 13.484375 -18.875 C 12.523438 -18.875 11.601562 -18.65625 10.71875 -18.21875 C 9.832031 -17.78125 9.125 -17.34375 8.59375 -16.90625 C 8.0625 -16.46875 7.796875 -16.203125 7.796875 -16.109375 L 7.796875 0 L 3.875 0 L 3.875 -14.671875 C 3.875 -16.785156 3.082031 -18.476562 1.5 -19.75 L 3.875 -21.53125 L 7.609375 -18.125 C 9.078125 -19.332031 10.351562 -20.222656 11.4375 -20.796875 C 12.53125 -21.378906 13.671875 -21.671875 14.859375 -21.671875 C 17.566406 -21.671875 19.242188 -20.410156 19.890625 -17.890625 C 20.984375 -19.128906 22.226562 -20.066406 23.625 -20.703125 C 25.03125 -21.347656 26.3125 -21.671875 27.46875 -21.671875 Z M 27.46875 -21.671875 "/></g></g></g><g fill="#545454" fill-opacity="1"><g transform="translate(298.427607, 335.948006)"><g><path d="M 4.90625 -11.484375 C 4.90625 -8.117188 5.660156 -5.695312 7.171875 -4.21875 C 8.679688 -2.75 10.515625 -2.015625 12.671875 -2.015625 C 14.835938 -2.015625 16.84375 -2.429688 18.6875 -3.265625 L 18.6875 -1.640625 C 16.132812 -0.171875 13.6875 0.5625 11.34375 0.5625 C 8.320312 0.5625 5.878906 -0.351562 4.015625 -2.1875 C 2.148438 -4.03125 1.21875 -6.691406 1.21875 -10.171875 C 1.21875 -13.660156 2.25 -16.445312 4.3125 -18.53125 C 6.382812 -20.625 8.882812 -21.671875 11.8125 -21.671875 C 14.082031 -21.671875 15.976562 -20.773438 17.5 -18.984375 C 19.03125 -17.191406 19.796875 -14.691406 19.796875 -11.484375 Z M 9.4375 -19.46875 C 8.34375 -18.945312 7.40625 -18.097656 6.625 -16.921875 C 5.851562 -15.753906 5.34375 -14.410156 5.09375 -12.890625 L 16.015625 -12.890625 C 15.921875 -14.203125 15.617188 -15.320312 15.109375 -16.25 C 14.597656 -17.1875 13.984375 -17.875 13.265625 -18.3125 C 11.984375 -19.082031 10.707031 -19.46875 9.4375 -19.46875 Z M 9.4375 -19.46875 "/></g></g></g><g fill="#545454" fill-opacity="1"><g transform="translate(320.329538, 335.948006)"><g><path d="M 7.5625 -18.125 C 8.875 -19.363281 10.019531 -20.265625 11 -20.828125 C 11.976562 -21.390625 13.132812 -21.671875 14.46875 -21.671875 C 15.8125 -21.671875 17.050781 -21.140625 18.1875 -20.078125 C 19.320312 -19.023438 19.890625 -17.207031 19.890625 -14.625 L 19.890625 0 L 15.921875 0 L 15.921875 -14.15625 C 15.921875 -15.675781 15.648438 -16.816406 15.109375 -17.578125 C 14.566406 -18.347656 13.632812 -18.734375 12.3125 -18.734375 C 10.988281 -18.734375 9.453125 -17.859375 7.703125 -16.109375 L 7.703125 0 L 3.734375 0 L 3.734375 -14.671875 C 3.734375 -16.785156 2.941406 -18.476562 1.359375 -19.75 L 3.734375 -21.53125 Z M 7.5625 -18.125 "/></g></g></g><g fill="#545454" fill-opacity="1"><g transform="translate(343.679146, 335.948006)"><g><path d="M 8.171875 -4.109375 C 8.171875 -3.171875 8.359375 -2.46875 8.734375 -2 C 9.109375 -1.539062 9.726562 -1.3125 10.59375 -1.3125 C 11.46875 -1.3125 12.515625 -1.546875 13.734375 -2.015625 L 13.734375 -0.703125 C 11.921875 0.140625 10.296875 0.5625 8.859375 0.5625 C 7.429688 0.5625 6.304688 0.164062 5.484375 -0.625 C 4.660156 -1.425781 4.25 -2.664062 4.25 -4.34375 L 4.25 -19.421875 L 0.46875 -20.171875 L 0.46875 -21.109375 L 4.25 -21.109375 L 4.25 -22.796875 L 8.171875 -25.640625 L 8.171875 -21.109375 L 13.734375 -21.109375 L 13.734375 -19.421875 L 8.171875 -19.421875 Z M 8.171875 -4.109375 "/></g></g></g><g fill="#545454" fill-opacity="1"><g transform="translate(196.99048, 52.499997)"><g><path d="M 22.84375 -20.921875 C 22.84375 -18.191406 21.835938 -16.117188 19.828125 -14.703125 C 17.828125 -13.296875 15.101562 -12.59375 11.65625 -12.59375 L 7.984375 -12.59375 L 7.984375 0 L 3.84375 0 L 3.84375 -28.265625 L 13.03125 -28.265625 C 15.90625 -28.265625 18.257812 -27.609375 20.09375 -26.296875 C 21.925781 -24.992188 22.84375 -23.203125 22.84375 -20.921875 Z M 7.984375 -13.828125 L 11.78125 -13.828125 C 13.125 -13.828125 14.269531 -14.082031 15.21875 -14.59375 C 16.175781 -15.113281 16.867188 -15.769531 17.296875 -16.5625 C 18.066406 -17.988281 18.453125 -19.375 18.453125 -20.71875 C 18.453125 -21.363281 18.28125 -22.144531 17.9375 -23.0625 C 17.25 -24.9375 15.835938 -26.160156 13.703125 -26.734375 C 11.660156 -26.734375 9.753906 -26.488281 7.984375 -26 Z M 7.984375 -13.828125 "/></g></g></g><g fill="#545454" fill-opacity="1"><g transform="translate(220.300021, 52.499997)"><g><path d="M 6.3125 0 L 2.734375 0 L 2.734375 -19.296875 L 5.203125 -19.296875 L 6.1875 -15.71875 C 6.757812 -16.707031 7.664062 -17.644531 8.90625 -18.53125 C 10.144531 -19.414062 11.414062 -19.957031 12.71875 -20.15625 L 13.15625 -17.203125 C 12.101562 -17.203125 10.910156 -16.875 9.578125 -16.21875 C 8.253906 -15.570312 7.164062 -14.847656 6.3125 -14.046875 Z M 6.3125 0 "/></g></g></g><g fill="#545454" fill-opacity="1"><g transform="translate(233.875906, 52.499997)"><g><path d="M 11.4375 -19.8125 C 13.945312 -19.8125 16.019531 -18.957031 17.65625 -17.25 C 19.289062 -15.539062 20.109375 -13.191406 20.109375 -10.203125 C 20.109375 -8.296875 19.78125 -6.613281 19.125 -5.15625 C 18.476562 -3.707031 17.625 -2.585938 16.5625 -1.796875 C 14.539062 -0.253906 12.285156 0.515625 9.796875 0.515625 C 7.304688 0.515625 5.242188 -0.335938 3.609375 -2.046875 C 1.972656 -3.753906 1.15625 -6.101562 1.15625 -9.09375 C 1.15625 -11 1.472656 -12.675781 2.109375 -14.125 C 2.753906 -15.582031 3.601562 -16.710938 4.65625 -17.515625 C 6.675781 -19.046875 8.9375 -19.8125 11.4375 -19.8125 Z M 10.59375 -0.9375 C 11.84375 -0.9375 12.910156 -1.421875 13.796875 -2.390625 C 15.390625 -4.097656 16.1875 -6.367188 16.1875 -9.203125 C 16.1875 -12.035156 15.703125 -14.238281 14.734375 -15.8125 C 13.765625 -17.394531 12.1875 -18.1875 10 -18.1875 C 8.375 -17.5625 7.140625 -16.457031 6.296875 -14.875 C 5.453125 -13.300781 5.03125 -11.394531 5.03125 -9.15625 C 5.03125 -6.925781 5.484375 -5 6.390625 -3.375 C 7.304688 -1.75 8.707031 -0.9375 10.59375 -0.9375 Z M 10.59375 -0.9375 "/></g></g></g><g fill="#545454" fill-opacity="1"><g transform="translate(255.221642, 52.499997)"><g><path d="M 7.21875 -25.234375 C 7.21875 -24.609375 7.003906 -24.082031 6.578125 -23.65625 C 6.148438 -23.226562 5.628906 -23.015625 5.015625 -23.015625 C 4.398438 -23.015625 3.878906 -23.226562 3.453125 -23.65625 C 3.023438 -24.082031 2.8125 -24.609375 2.8125 -25.234375 C 2.8125 -25.859375 3.023438 -26.382812 3.453125 -26.8125 C 3.878906 -27.238281 4.398438 -27.453125 5.015625 -27.453125 C 5.628906 -27.453125 6.148438 -27.238281 6.578125 -26.8125 C 7.003906 -26.382812 7.21875 -25.859375 7.21875 -25.234375 Z M 3.203125 -19.296875 L 6.828125 -19.296875 L 6.828125 0.765625 C 6.828125 3.722656 6.171875 5.921875 4.859375 7.359375 C 3.554688 8.796875 1.851562 9.515625 -0.25 9.515625 C -1.195312 9.515625 -2.28125 9.300781 -3.5 8.875 L -3.15625 7.21875 C -2.1875 7.445312 -1.25 7.5625 -0.34375 7.5625 C 0.96875 7.5625 1.882812 7.085938 2.40625 6.140625 C 2.9375 5.203125 3.203125 4.109375 3.203125 2.859375 Z M 3.203125 -19.296875 "/></g></g></g><g fill="#545454" fill-opacity="1"><g transform="translate(265.254139, 52.499997)"><g><path d="M 4.484375 -10.5 C 4.484375 -7.425781 5.171875 -5.210938 6.546875 -3.859375 C 7.929688 -2.515625 9.613281 -1.84375 11.59375 -1.84375 C 13.570312 -1.84375 15.398438 -2.222656 17.078125 -2.984375 L 17.078125 -1.5 C 14.742188 -0.15625 12.507812 0.515625 10.375 0.515625 C 7.613281 0.515625 5.378906 -0.320312 3.671875 -2 C 1.960938 -3.6875 1.109375 -6.125 1.109375 -9.3125 C 1.109375 -12.5 2.054688 -15.046875 3.953125 -16.953125 C 5.847656 -18.859375 8.128906 -19.8125 10.796875 -19.8125 C 12.878906 -19.8125 14.617188 -18.992188 16.015625 -17.359375 C 17.410156 -15.722656 18.109375 -13.4375 18.109375 -10.5 Z M 8.625 -17.8125 C 7.625 -17.320312 6.769531 -16.539062 6.0625 -15.46875 C 5.351562 -14.40625 4.882812 -13.175781 4.65625 -11.78125 L 14.640625 -11.78125 C 14.554688 -12.976562 14.28125 -14.003906 13.8125 -14.859375 C 13.34375 -15.710938 12.78125 -16.335938 12.125 -16.734375 C 10.957031 -17.453125 9.789062 -17.8125 8.625 -17.8125 Z M 8.625 -17.8125 "/></g></g></g><g fill="#545454" fill-opacity="1"><g transform="translate(285.276434, 52.499997)"><g><path d="M 9.734375 0.515625 C 7.253906 0.515625 5.195312 -0.328125 3.5625 -2.015625 C 1.925781 -3.710938 1.109375 -6.113281 1.109375 -9.21875 C 1.109375 -12.320312 1.984375 -14.863281 3.734375 -16.84375 C 5.484375 -18.820312 7.710938 -19.8125 10.421875 -19.8125 C 11.929688 -19.8125 13.625 -19.441406 15.5 -18.703125 L 15.078125 -15.890625 C 12.566406 -17.191406 10.414062 -17.84375 8.625 -17.84375 C 7.144531 -17.101562 6.078125 -15.90625 5.421875 -14.25 C 4.765625 -12.601562 4.4375 -10.984375 4.4375 -9.390625 C 4.4375 -7.234375 5.066406 -5.4375 6.328125 -4 C 7.597656 -2.5625 9.113281 -1.84375 10.875 -1.84375 C 12.644531 -1.84375 14.269531 -2.222656 15.75 -2.984375 L 15.75 -1.5 C 13.707031 -0.15625 11.703125 0.515625 9.734375 0.515625 Z M 9.734375 0.515625 "/></g></g></g><g fill="#545454" fill-opacity="1"><g transform="translate(302.609174, 52.499997)"><g><path d="M 7.46875 -3.765625 C 7.46875 -2.910156 7.640625 -2.269531 7.984375 -1.84375 C 8.328125 -1.414062 8.894531 -1.203125 9.6875 -1.203125 C 10.488281 -1.203125 11.445312 -1.414062 12.5625 -1.84375 L 12.5625 -0.640625 C 10.90625 0.128906 9.421875 0.515625 8.109375 0.515625 C 6.804688 0.515625 5.773438 0.148438 5.015625 -0.578125 C 4.265625 -1.304688 3.890625 -2.4375 3.890625 -3.96875 L 3.890625 -17.765625 L 0.421875 -18.453125 L 0.421875 -19.296875 L 3.890625 -19.296875 L 3.890625 -20.84375 L 7.46875 -23.4375 L 7.46875 -19.296875 L 12.5625 -19.296875 L 12.5625 -17.765625 L 7.46875 -17.765625 Z M 7.46875 -3.765625 "/></g></g></g></svg>